<svg xmlns="http://www.w3.org/2000/svg" viewBox="0 0 512 512" role="img" aria-label="Claris">
  <rect width="512" height="512" rx="112" fill="#ffffff"/>
  <rect x="116" y="116" width="280" height="280" rx="62" fill="none" stroke="#171a1c" stroke-width="28"/>
  <path d="M337 327c-29 28-66 42-111 42-42 0-78-15-107-44-29-30-44-66-44-110 0-43 15-80 44-109 29-30 65-45 108-45 45 0 82 14 110 42 11 10 11 28 0 39l-24 24c-10 10-26 10-37 1-13-11-29-17-49-17-21 0-39 7-53 22-14 14-21 33-21 57s7 43 22 58c14 14 32 22 53 22 19 0 35-6 48-17 11-9 27-9 37 1l24 24c11 11 11 29 0 40z" fill="#171a1c"/>
</svg>
