<svg xmlns="http://www.w3.org/2000/svg" viewBox="0 0 512 512" role="img" aria-label="Claris">
  <rect width="512" height="512" rx="84" fill="#243c38"/>
  <path d="M106 352c40 42 91 63 151 63 54 0 99-17 134-51l-45-50c-24 22-54 33-90 33-34 0-63-11-86-33-23-23-34-52-34-88 0-35 11-64 34-87 23-23 52-34 86-34 35 0 65 11 90 34l45-51c-35-34-80-51-134-51-60 0-111 21-151 63-39 40-59 91-59 151 0 61 20 112 59 151z" fill="#f7f3eb"/>
  <circle cx="365" cy="150" r="24" fill="#f2a65a"/>
  <circle cx="403" cy="194" r="16" fill="#4f7cac"/>
  <circle cx="326" cy="196" r="16" fill="#d85c4a"/>
</svg>
